<?xml version="1.0" standalone="no"?>
<!DOCTYPE svg PUBLIC "-//W3C//DTD SVG 20010904//EN"
 "http://www.w3.org/TR/2001/REC-SVG-20010904/DTD/svg10.dtd">
<svg version="1.0" xmlns="http://www.w3.org/2000/svg"
 width="96.000000pt" height="96.000000pt" viewBox="0 0 96.000000 96.000000"
 preserveAspectRatio="xMidYMid meet">
<metadata>
Created by potrace 1.14, written by Peter Selinger 2001-2017
</metadata>
<g transform="translate(0.000000,96.000000) scale(0.100000,-0.100000)"
fill="#000000" stroke="none">
<path d="M145 814 l-25 -27 0 -299 c0 -322 4 -349 52 -362 30 -8 602 -8 623 0
41 16 45 50 45 354 0 314 -4 341 -52 354 -13 3 -157 6 -321 6 l-298 0 -24 -26z
m615 -394 l0 -220 -280 0 -280 0 0 220 0 220 280 0 280 0 0 -220z"/>
<path d="M303 513 c-22 -8 -14 -33 22 -70 19 -20 35 -39 35 -44 0 -4 -16 -24
-35 -43 -19 -20 -35 -43 -35 -50 0 -19 28 -28 48 -17 25 14 102 99 102 112 0
14 -104 119 -117 118 -4 0 -14 -3 -20 -6z"/>
<path d="M486 325 c-14 -37 3 -45 94 -45 82 0 89 2 95 21 10 31 -9 39 -101 39
-64 0 -83 -3 -88 -15z"/>
</g>
</svg>
